<?xml version="1.0" encoding="utf-8"?>
<!-- Generator: Adobe Illustrator 27.8.1, SVG Export Plug-In . SVG Version: 6.00 Build 0)  -->
<svg version="1.1" id="_레이어_2" xmlns="http://www.w3.org/2000/svg" xmlns:xlink="http://www.w3.org/1999/xlink" x="0px"
	 y="0px" viewBox="0 0 66 66" style="enable-background:new 0 0 66 66;" xml:space="preserve">
<style type="text/css">
	.st0{fill:#45BD00;}
	.st1{fill:#FFFFFF;}
</style>
<g>
	<path class="st0" d="M66,33c0,18.3-14.7,33-33,33S0,51.2,0,33C0,14.7,14.7,0,33,0S66,14.7,66,33"/>
	<g>
		<path class="st1" d="M19,30.5c-0.9,0-1.7,0.8-1.7,1.7c0.1,2.2,3.3,2.2,3.4,0C20.6,31.2,19.9,30.5,19,30.5z"/>
		<path class="st1" d="M35.5,30.3c-1,0-1.8,0.8-1.8,1.8c0.1,2.4,3.5,2.4,3.6,0C37.3,31.1,36.5,30.3,35.5,30.3z"/>
		<path class="st1" d="M50.6,13.7H14.7c-3.6,0-6.5,2.9-6.5,6.5v21.3c0,3.6,2.9,6.5,6.5,6.5h12.6l4.3,10.1c0.4,1.2,1.6,1.2,2,0L38,48
			h12.5c3.6,0,6.5-2.9,6.5-6.5V20.3C57.1,16.7,54.2,13.7,50.6,13.7z M23.6,32.5c0,3.9-4,4-4,4c-1.5,0-2.4-1-2.4-1v0.7h-2.9v-12
			c0.2,0,2.9,0,2.9,0v4.6c0.7-1.2,2.7-1.1,2.7-1.1C24.2,28,23.6,32.5,23.6,32.5z M28.8,28v8.2h-2.9V28c0-1.1-1.4-1.4-1.4-1.4v-2.9
			C29.1,23.9,28.8,28,28.8,28z M35.5,36.5c-2.6,0-4.8-2-4.8-4.4c0.3-5.8,9.3-5.8,9.6,0C40.3,34.5,38.2,36.5,35.5,36.5z M51.3,36.5
			c0,0,0,4.2-4.2,4.2h-1.3V38h0.8c0,0,1.8,0.2,1.8-2.6c0,0-0.3,1.1-2.9,1.1c0,0-3.6-0.3-3.6-3.7v-1.3c0,0,0.1-3.6,4-3.9
			c0,0,1.5-0.2,2.5,1.1v-0.9h2.9V36.5z"/>
		<path class="st1" d="M46.6,30.3c-1,0-1.8,0.8-1.8,1.8c0.1,2.3,3.5,2.3,3.5,0C48.4,31.1,47.6,30.3,46.6,30.3z"/>
	</g>
</g>
</svg>
