<?xml version="1.0" encoding="utf-8"?>
<!-- Generator: Adobe Illustrator 27.8.1, SVG Export Plug-In . SVG Version: 6.00 Build 0)  -->
<svg version="1.1" id="_레이어_2" xmlns="http://www.w3.org/2000/svg" xmlns:xlink="http://www.w3.org/1999/xlink" x="0px"
	 y="0px" viewBox="0 0 66 66" style="enable-background:new 0 0 66 66;" xml:space="preserve">
<style type="text/css">
	.st0{fill:#355189;}
	.st1{fill:#FFFFFF;}
</style>
<g>
	<path class="st0" d="M66,33c0,18.2-14.8,33-33,33C14.8,66,0,51.2,0,33C0,14.8,14.8,0,33,0C51.2,0,66,14.8,66,33"/>
	<path class="st1" d="M35.7,50.7V34.5h5.4l0.8-6.3h-6.2v-4c0-1.8,0.5-3.1,3.1-3.1h3.3v-5.6c-0.6-0.1-2.6-0.2-4.9-0.2
		c-4.8,0-8.1,2.9-8.1,8.3v4.6h-5.4v6.3h5.4v16.2H35.7z"/>
</g>
</svg>
