<?xml version="1.0" encoding="utf-8"?>
<!-- Generator: Adobe Illustrator 27.8.1, SVG Export Plug-In . SVG Version: 6.00 Build 0)  -->
<svg version="1.1" id="_레이어_2" xmlns="http://www.w3.org/2000/svg" xmlns:xlink="http://www.w3.org/1999/xlink" x="0px"
	 y="0px" viewBox="0 0 66 66" style="enable-background:new 0 0 66 66;" xml:space="preserve">
<style type="text/css">
	.st0{fill:url(#SVGID_1_);}
	.st1{fill:#FFFFFF;}
</style>
<g>
	<radialGradient id="SVGID_1_" cx="23.1923" cy="66.6087" r="66.0682" gradientUnits="userSpaceOnUse">
		<stop  offset="0" style="stop-color:#EDC970"/>
		<stop  offset="0.335" style="stop-color:#F06536"/>
		<stop  offset="0.5287" style="stop-color:#F03179"/>
		<stop  offset="0.7924" style="stop-color:#BD3AC2"/>
		<stop  offset="1" style="stop-color:#5D45E2"/>
	</radialGradient>
	<circle class="st0" cx="33" cy="33" r="32.5"/>
	<g>
		<path class="st1" d="M54.1,24.2c-0.1-2.3-0.5-3.8-1-5.2c-0.5-1.4-1.3-2.6-2.5-3.8c-1.2-1.2-2.4-1.9-3.8-2.5
			c-1.4-0.5-2.9-0.9-5.2-1c-2.3-0.1-3-0.1-8.8-0.1c-5.8,0-6.5,0-8.8,0.1c-2.3,0.1-3.8,0.5-5.2,1c-1.4,0.5-2.6,1.3-3.8,2.5
			c-1.2,1.2-1.9,2.4-2.5,3.8c-0.5,1.4-0.9,2.9-1,5.2c-0.1,2.3-0.1,3-0.1,8.8c0,5.8,0,6.5,0.1,8.8c0.1,2.3,0.5,3.8,1,5.2
			c0.5,1.4,1.3,2.6,2.5,3.8c1.2,1.2,2.4,1.9,3.8,2.5c1.4,0.5,2.9,0.9,5.2,1c2.3,0.1,3,0.1,8.8,0.1c5.8,0,6.5,0,8.8-0.1
			c2.3-0.1,3.8-0.5,5.2-1c1.4-0.5,2.6-1.3,3.8-2.5c1.2-1.2,1.9-2.4,2.5-3.8c0.5-1.4,0.9-2.9,1-5.2c0.1-2.3,0.1-3,0.1-8.8
			C54.3,27.2,54.2,26.5,54.1,24.2z M50.3,41.6c-0.1,2.1-0.4,3.2-0.7,3.9c-0.4,1-0.8,1.7-1.6,2.4c-0.7,0.7-1.5,1.2-2.4,1.6
			c-0.7,0.3-1.9,0.6-4,0.7c-2.2,0.1-2.9,0.1-8.6,0.1c-5.7,0-6.4,0-8.6-0.1c-2.1-0.1-3.2-0.4-4-0.7c-1-0.4-1.7-0.8-2.4-1.6
			c-0.7-0.7-1.2-1.5-1.6-2.4c-0.3-0.7-0.6-1.9-0.7-3.9c-0.1-2.2-0.1-2.9-0.1-8.6c0-5.7,0-6.4,0.1-8.6c0.1-2.1,0.4-3.2,0.7-3.9
			c0.4-1,0.8-1.7,1.6-2.4c0.7-0.7,1.5-1.2,2.4-1.6c0.8-0.3,1.9-0.6,4-0.7c2.2-0.1,2.9-0.1,8.6-0.1c5.7,0,6.4,0,8.6,0.1
			c2.1,0.1,3.2,0.4,4,0.7c1,0.4,1.7,0.8,2.4,1.6c0.7,0.7,1.2,1.5,1.6,2.4c0.3,0.7,0.6,1.9,0.7,3.9c0.1,2.2,0.1,2.9,0.1,8.6
			C50.4,38.7,50.4,39.3,50.3,41.6z"/>
		<path class="st1" d="M33,22.1c-6,0-10.9,4.9-10.9,10.9c0,6,4.9,10.9,10.9,10.9c6,0,10.9-4.9,10.9-10.9C43.9,27,39,22.1,33,22.1z
			 M33,40.1c-3.9,0-7.1-3.2-7.1-7.1c0-3.9,3.2-7.1,7.1-7.1s7.1,3.2,7.1,7.1C40.1,36.9,36.9,40.1,33,40.1z"/>
		<path class="st1" d="M44.3,19.1c-1.4,0-2.6,1.1-2.6,2.6c0,1.4,1.1,2.6,2.6,2.6c1.4,0,2.6-1.1,2.6-2.6
			C46.9,20.2,45.8,19.1,44.3,19.1z"/>
	</g>
</g>
</svg>
