<?xml version="1.0" encoding="utf-8"?>
<!-- Generator: Adobe Illustrator 27.8.1, SVG Export Plug-In . SVG Version: 6.00 Build 0)  -->
<svg version="1.1" id="_레이어_2" xmlns="http://www.w3.org/2000/svg" xmlns:xlink="http://www.w3.org/1999/xlink" x="0px"
	 y="0px" viewBox="0 0 66 66" style="enable-background:new 0 0 66 66;" xml:space="preserve">
<style type="text/css">
	.st0{fill:#D32F2A;}
	.st1{fill:#FFFFFF;}
</style>
<g>
	<path class="st0" d="M33,0C14.8,0,0,14.8,0,33s14.8,33,33,33c18.2,0,33-14.8,33-33S51.2,0,33,0"/>
	<path class="st1" d="M55.6,23.8c0,0-0.5-3.2-1.8-4.6c-1.8-1.8-3.7-1.8-4.6-2C42.7,16.8,33,16.8,33,16.8h0c0,0-9.7,0-16.2,0.5
		c-0.9,0.1-2.9,0.1-4.6,2c-1.4,1.4-1.8,4.6-1.8,4.6s-0.5,3.7-0.5,7.5v3.5c0,3.7,0.5,7.5,0.5,7.5s0.5,3.2,1.8,4.6
		c1.8,1.8,4.1,1.8,5.1,2C21,49.1,33,49.2,33,49.2s9.7,0,16.2-0.5c0.9-0.1,2.9-0.1,4.6-2c1.4-1.4,1.8-4.6,1.8-4.6s0.5-3.7,0.5-7.5
		v-3.5C56.1,27.5,55.6,23.8,55.6,23.8 M28.2,39l0-13l12.5,6.5L28.2,39z"/>
</g>
</svg>
